<svg xmlns="http://www.w3.org/2000/svg" xmlns:xlink="http://www.w3.org/1999/xlink" viewBox="0 0 300 300"><defs/><defs><linearGradient id="h" x1="116.93" x2="98.56" y1="98.23" y2="119.17" gradientUnits="userSpaceOnUse"><stop offset=".32" stop-color="#312d2b"/><stop offset=".52" stop-color="#312d2b" stop-opacity=".68"/><stop offset=".95" stop-color="#312d2b" stop-opacity="0"/></linearGradient><linearGradient id="a" x1="116.93" x2="98.56" y1="98.23" y2="119.17" gradientTransform="translate(417.01 -118.97)" gradientUnits="userSpaceOnUse"><stop offset=".32" stop-color="#312d2b"/><stop offset=".52" stop-color="#312d2b" stop-opacity=".68"/><stop offset=".95" stop-color="#312d2b" stop-opacity="0"/></linearGradient><linearGradient id="b" x1="116.93" x2="98.56" y1="98.23" y2="119.17" gradientTransform="matrix(6 0 0 6 176.13 -358.85)" gradientUnits="userSpaceOnUse"><stop offset=".32" stop-color="#312d2b"/><stop offset=".52" stop-color="#312d2b" stop-opacity=".68"/><stop offset=".95" stop-color="#312d2b" stop-opacity="0"/></linearGradient><linearGradient id="i" x1="116.93" x2="98.56" y1="98.23" y2="119.17" gradientTransform="translate(417.01 -118.97)" gradientUnits="userSpaceOnUse" xlink:href="#a"/><linearGradient id="j" x1="116.93" x2="98.56" y1="98.23" y2="119.17" gradientTransform="matrix(6 0 0 6 176.13 -358.85)" gradientUnits="userSpaceOnUse" xlink:href="#b"/><radialGradient id="g" cx="120.67" cy="91.7" r="44.03" gradientUnits="userSpaceOnUse" transform="translate(432.48 -118.97)"><stop offset="0" stop-color="#312d2b" stop-opacity="0"/><stop offset=".37" stop-color="#312d2b" stop-opacity="0"/><stop offset=".73" stop-color="#312d2b"/></radialGradient></defs><path fill="#ada9b6" d="M134.53 298.13a129.9 129.9 0 01-76.92-37.59c-21.16-21.46-33.48-47.5-36.56-77.26-.73-7-.33-24.18.7-30.6 5.82-35.96 24.55-65.85 54.37-86.75 3.43-2.4 4.45-2.55 1.65-.23a113.32 113.32 0 00-36.06 55.57c-5.1 18.14-5.24 39.12-.4 59.2 5.89 24.4 18.35 46 36.78 63.7 7.38 7.1 11.65 10.5 19.87 15.86 30.44 19.85 68.08 26.33 103.85 17.87a132.8 132.8 0 0063.06-35.15c3.22-3.2 7.12-7.4 8.67-9.35 5.5-6.95 2.83-2-3.2 5.9a156.62 156.62 0 01-35.48 33.66 152.48 152.48 0 01-70.72 25.39c-6.53.63-23.52.51-29.61-.22zm21.1-20.85c-35.64-4.32-67.15-22.27-88.62-50.5a55.88 55.88 0 01-3.28-4.55c0-.14 2.9 2.62 6.45 6.12 3.55 3.5 8.24 7.74 10.43 9.41 18.67 14.25 40.25 22.32 62.83 23.48a133.13 133.13 0 00118.85-60.86c10.49-16.2 17.05-34.22 19.73-54.18 1.08-8.05 1.1-23.72.02-31.88a130.97 130.97 0 00-28.74-66.78c-4.6-5.66-12.82-13.96-17.63-17.8-1.73-1.38-3.05-2.6-2.93-2.72.3-.3 7.48 4.83 12.44 8.87 2.2 1.79 6.7 5.87 10 9.07 23.58 22.8 38.43 51.53 43.46 84.1 1.27 8.2 1.78 25.92.97 33.6-2.54 23.97-11.02 45.35-25.67 64.74-5.37 7.1-17.89 19.48-25.01 24.72-19.6 14.43-40.77 22.7-64.94 25.38-5.75.64-22.34.5-28.36-.22zm-94-6.79a156.36 156.36 0 01-34.14-34.12 148.51 148.51 0 01-26.13-64.23C.09 163.96-.43 145.38.4 137.6 3.56 107.74 16.28 81.3 37.7 60c19.81-19.7 44.75-32.1 73.15-36.4 8-1.21 25.59-1.46 33.53-.47 36.03 4.5 66.93 22.2 88.77 50.87 5.35 7.03 7.05 9.9 3.52 5.95-17.34-19.37-35.84-30.95-58.87-36.84-16.45-4.2-36.82-4.45-55.02-.65-19.74 4.12-37.5 12.22-54.12 24.69-5.91 4.43-18.7 16.98-23.21 22.76-15.56 19.95-24.78 42.14-27.72 66.7-.85 7.14-.72 23.53.24 30.57 4.73 34.58 21.33 64 48.58 86.1.64.52.96.96.7.96-.26.01-2.79-1.68-5.63-3.76zm160.6-35c17.07-14.12 30.38-34.74 36.26-56.17 8.11-29.56 2.89-65.76-13.55-93.8-13.61-23.23-32.67-41.03-56.5-52.75a129.27 129.27 0 00-44.53-13.05c-8.42-.96-26.09-.7-33.76.48-31.93 4.96-59.54 19.81-80.7 43.44-1.78 1.97-3.22 3.42-3.22 3.22 0-.49 3.63-5.44 7.2-9.83 3.83-4.68 14.15-15.08 19.05-19.19A151.38 151.38 0 01128.2 3.75c8.38-1.26 26.55-1.75 34.75-.93a129 129 0 0158.67 20.87c30.56 20.17 50.56 51 56.43 86.99 1.4 8.57 1.72 24.53.68 33.43-2.7 23.13-11 43.94-24.76 62.17a126.83 126.83 0 01-29.73 28.64c-3.97 2.72-4.92 2.99-2 .58z"/><g font-family="Brandmark Script 1 Shadow" font-size="72" font-weight="400" text-anchor="middle" style="line-height:1;font-variant-ligatures:normal;text-align:center"><g aria-label="c" transform="matrix(6.00132 0 0 5.92885 -2953.53 144.7)"><path fill="#9b9b9b" d="M525.9-8.71a1.7 1.7 0 00-1.34-1.93c-.27.72-1.79 2.54-4.01 4.58-2.11 1.95-4.68 3.65-6.2 3.65-.9 0-1.5-.82-1.5-2.3 0-3.03 2.33-7.72 3.13-9.04a17.26 17.26 0 014.61-5.11c.8-.5 2.45-.44 2.38.64 0 .72-.3 1.37-.72 1.88-.36.5-1.3 1.44-1.08 1.58.21.22 1.44-.72 1.8-1 .86-.8 1.65-1.95 2.16-3.03.5-1.3-.58-2.88-3.03-4.4-2.3-1.36-3.67-1.22-5.04-.57-1.94.94-3.31 2.66-4.46 4.46a32.22 32.22 0 00-3.39 7.2c-.72 2.17-1.44 4.9-.93 7.06.51 3.42 3.07 5.4 5.7 5.4 1.61 0 4.5-1.25 6.08-2.61 1.09-.96 2.23-1.92 3.12-2.91.36-.4 2.47-2 2.72-3.55z" class="c1"/><radialGradient id="c" cx="120.67" cy="91.7" r="44.03" gradientUnits="userSpaceOnUse" transform="translate(417.01 -118.97)"><stop offset="0" stop-color="#312d2b" stop-opacity="0"/><stop offset=".38" stop-color="#312d2b" stop-opacity="0"/><stop offset=".74" stop-color="#312d2b"/></radialGradient><path fill="url(#c)" d="M100.44 115.32c-1.18.74-2.3 1.23-3.1 1.23-.9 0-1.5-.81-1.5-2.29 0-3.04 2.32-7.72 3.13-9.04a17.26 17.26 0 014.6-5.12c.8-.5 2.46-.43 2.38.65 0 .72-.29 1.37-.72 1.87-.36.5-1.3 1.44-1.08 1.59.22.21 1.44-.72 1.8-1.01.87-.8 1.66-1.94 2.16-3.02.5-1.3-.57-2.88-3.02-4.4-2.3-1.36-3.67-1.22-5.04-.57-1.95.93-3.31 2.66-4.47 4.46a32.22 32.22 0 00-3.38 7.2c-.25.99-.59 1.33-.93 4.2.22 6.41 5.2 7.17 9.17 4.25z" class="highlight" opacity=".81" transform="translate(417.01 -118.97)"/><linearGradient id="d" x1="116.93" x2="98.56" y1="98.23" y2="119.17" gradientUnits="userSpaceOnUse"><stop offset=".32" stop-color="#312d2b"/><stop offset=".52" stop-color="#312d2b" stop-opacity=".68"/><stop offset=".95" stop-color="#312d2b" stop-opacity="0"/></linearGradient><path fill="url(#d)" d="M107.55 108.32c-.27.72-1.8 2.55-4.01 4.6-1.92 1.76-4.2 3.3-5.75 3.58l-1.18 2.8.36.03c1.61 0 3.34-.59 6.08-2.61a28.92 28.92 0 003.1-2.92c.26-.3 2.49-2 2.74-3.54a1.7 1.7 0 00-1.34-1.94z" class="highlight" opacity=".81" transform="translate(417.01 -118.97)"/></g><g aria-label="c" transform="matrix(6.00132 0 0 5.92885 -3046.38 221.5)"><path fill="#9b9b9b" d="M541.37-8.71a1.7 1.7 0 00-1.34-1.93c-.27.72-1.8 2.54-4.01 4.58-2.12 1.95-4.68 3.65-6.2 3.65-.9 0-1.5-.82-1.5-2.3 0-3.03 2.33-7.72 3.13-9.04a17.26 17.26 0 014.6-5.11c.8-.5 2.46-.44 2.38.64 0 .72-.28 1.37-.71 1.88-.37.5-1.3 1.44-1.08 1.58.21.22 1.44-.72 1.8-1 .86-.8 1.65-1.95 2.16-3.03.5-1.3-.58-2.88-3.03-4.4-2.3-1.36-3.67-1.22-5.04-.57-1.94.94-3.31 2.66-4.46 4.46a32.22 32.22 0 00-3.39 7.2c-.72 2.17-1.44 4.9-.93 7.06.51 3.42 3.07 5.4 5.7 5.4 1.61 0 3.34-.58 6.08-2.61 1.12-1.05 2.3-2 3.1-2.92.26-.3 2.5-2 2.74-3.54z" class="c1"/><radialGradient id="e" cx="120.67" cy="91.7" r="44.03" gradientUnits="userSpaceOnUse" transform="translate(432.48 -118.97)"><stop offset="0" stop-color="#312d2b" stop-opacity="0"/><stop offset=".37" stop-color="#312d2b" stop-opacity="0"/><stop offset=".71" stop-color="#312d2b"/></radialGradient><path fill="url(#e)" d="M100.44 115.32c-1.18.74-2.3 1.23-3.1 1.23-.9 0-1.5-.81-1.5-2.29 0-3.04 2.32-7.72 3.13-9.04a17.26 17.26 0 014.6-5.12c.8-.5 2.46-.43 2.38.65 0 .72-.29 1.37-.72 1.87-.36.5-1.3 1.44-1.08 1.59.22.21 1.44-.72 1.8-1.01.87-.8 1.66-1.94 2.16-3.02.5-1.3-.57-2.88-3.02-4.4-2.3-1.36-3.67-1.22-5.04-.57-1.95.93-3.31 2.66-4.47 4.46a32.22 32.22 0 00-3.38 7.2 21.87 21.87 0 00-1.02 4.21c.56 6.23 5.3 7.16 9.26 4.24z" class="highlight" opacity=".81" transform="translate(432.48 -118.97)"/><linearGradient id="f" x1="116.93" x2="98.56" y1="98.23" y2="119.17" gradientUnits="userSpaceOnUse"><stop offset=".32" stop-color="#312d2b"/><stop offset=".52" stop-color="#312d2b" stop-opacity=".68"/><stop offset=".95" stop-color="#312d2b" stop-opacity="0"/></linearGradient><path fill="url(#f)" d="M107.55 108.32c-.27.72-1.8 2.55-4.01 4.6-1.92 1.76-4.2 3.3-5.75 3.58l-1.18 2.8.36.03c1.61 0 3.33-.61 6.07-2.64 1.02-.9 2.2-1.98 3.11-2.9.26-.28 2.49-1.99 2.74-3.53a1.7 1.7 0 00-1.34-1.94z" class="highlight" opacity=".81" transform="translate(432.48 -118.97)"/></g><g aria-label="c" style="line-height:1;font-variant-ligatures:normal;text-align:center"><path fill="#9b9b9b" d="M203.75 247.21c.6-3.66-1.04-9.82-8.04-11.46-1.63 4.27-10.74 15.07-24.07 27.2-12.68 11.54-28.06 21.6-37.21 21.6-5.37 0-9-4.84-9-13.58 0-18.03 13.98-45.81 18.8-53.64 8.65-14.1 19.45-24.77 27.66-30.32 4.75-2.98 14.7-2.56 14.26 3.85 0 4.27-1.73 8.1-4.32 11.1-2.16 2.99-7.78 8.54-6.48 9.39 1.3 1.28 8.64-4.27 10.8-5.98 5.18-4.7 9.94-11.52 12.96-17.93 3.03-7.68-3.46-17.07-18.15-26.04-13.82-8.11-22.04-7.26-30.25-3.42-11.67 5.55-19.88 15.8-26.79 26.47a190 190 0 00-20.3 42.7c-4.33 12.8-8.65 29.02-5.63 41.83 3.09 20.26 18.43 29.22 34.24 29.22 9.67 0 20.05-.68 36.5-12.7 6.68-6.2 13.74-11.87 18.63-17.29 1.5-1.74 14.9-11.84 16.4-21z" class="c1"/><path fill="url(#g)" d="M100.44 115.32c-1.18.74-2.3 1.23-3.1 1.23-.9 0-1.5-.81-1.5-2.29 0-3.04 2.32-7.72 3.13-9.04a17.26 17.26 0 014.6-5.12c.8-.5 2.46-.43 2.38.65 0 .72-.29 1.37-.72 1.87-.36.5-1.3 1.44-1.08 1.59.22.21 1.44-.72 1.8-1.01.87-.8 1.66-1.94 2.16-3.02.5-1.3-.57-2.88-3.02-4.4-2.3-1.36-3.67-1.22-5.04-.57-1.95.93-3.31 2.66-4.47 4.46a32.22 32.22 0 00-3.38 7.2 21.87 21.87 0 00-1.02 4.21c.56 6.23 5.3 7.16 9.26 4.24z" class="highlight" opacity=".81" transform="matrix(6.00132 0 0 5.92885 -449.7 -406.49)"/><path fill="url(#h)" d="M107.55 108.32c-.27.72-1.8 2.55-4.01 4.6-1.92 1.76-4.2 3.3-5.75 3.58l-1.18 2.8.36.03c1.61 0 3.33-.61 6.07-2.64 1.02-.9 2.2-1.98 3.11-2.9.26-.28 2.49-1.99 2.74-3.53a1.7 1.7 0 00-1.34-1.94z" class="highlight" opacity=".81" transform="matrix(6.00132 0 0 5.92885 -449.7 -406.49)"/></g><path fill="url(#i)" style="line-height:1;font-variant-ligatures:normal;text-align:center" d="M524.56-10.64c-.27.72-2.2 2.95-4.42 5-1.72 1.9-2.92 2.45-4.34 5.67.12 0-.12 0 0 0 1.62 0 1.52-.25 4.26-2.28a28.92 28.92 0 003.1-2.92c.26-.3 2.5-2 2.74-3.54a1.7 1.7 0 00-1.34-1.93z" class="highlight" opacity=".81" transform="matrix(6.00132 0 0 5.92885 -2953.53 144.7)"/><path fill="url(#j)" style="line-height:1;font-variant-ligatures:normal;text-align:center" d="M821.41 291.09c-1.63 4.33-13.04 18.96-26.37 31.24-4.03 5.44-17.7 13.49-26.17 32.79.73.05-.73 0 0 0 9.67 0 9.11-1.51 25.57-13.68 7.6-6.51 14.29-12.34 18.62-17.5 1.5-1.75 14.9-11.98 16.39-21.25.6-3.7-1.05-9.94-8.04-11.6z" class="highlight" opacity=".81" transform="matrix(1.00022 0 0 .98814 -627.09 -129.25)"/></g></svg>